<svg height="512pt" viewBox="-5 0 512 512" width="512pt" xmlns="http://www.w3.org/2000/svg"><path d="m419.425781 63.9375c-4.203125 0-7.609375-3.410156-7.609375-7.613281v-48.710938c0-4.207031 3.40625-7.613281 7.609375-7.613281 4.207031 0 7.613281 3.40625 7.613281 7.613281v48.710938c0 4.203125-3.410156 7.613281-7.613281 7.613281zm0 0" fill="#6f6571"/><path d="m354.710938 131.933594h129.429687v369.503906c0 5.835938-4.726563 10.5625-10.5625 10.5625h-118.867187zm0 0" fill="#edebed"/><path d="m450.648438 131.933594v369.503906c0 5.835938-4.726563 10.5625-10.558594 10.5625h33.488281c5.835937 0 10.5625-4.726562 10.5625-10.5625v-369.503906zm0 0" fill="#dbd9dc"/><path d="m389.609375 255.238281c-4.203125 0-7.609375-3.40625-7.609375-7.609375v-76.625c0-4.203125 3.40625-7.609375 7.609375-7.609375 4.207031 0 7.613281 3.40625 7.613281 7.609375v76.625c0 4.203125-3.40625 7.609375-7.613281 7.609375zm0 0" fill="#9cbee4"/><path d="m419.425781 255.238281c-4.203125 0-7.609375-3.40625-7.609375-7.609375v-76.625c0-4.203125 3.40625-7.609375 7.609375-7.609375 4.207031 0 7.613281 3.40625 7.613281 7.609375v76.625c0 4.203125-3.410156 7.609375-7.613281 7.609375zm0 0" fill="#9cbee4"/><path d="m449.242188 255.238281c-4.203126 0-7.609376-3.40625-7.609376-7.609375v-76.625c0-4.203125 3.40625-7.609375 7.609376-7.609375 4.207031 0 7.613281 3.40625 7.613281 7.609375v76.625c0 4.203125-3.410157 7.609375-7.613281 7.609375zm0 0" fill="#9cbee4"/><path d="m295.003906 175.570312 115.621094 97.175782v239.253906h-115.621094zm0 0" fill="#b7b2b8"/><path d="m267.386719 61.398438h-93.144531v-43.859376c0-5.484374 4.441406-9.925781 9.925781-9.925781h73.292969c5.480468 0 9.925781 4.441407 9.925781 9.925781zm0 0" fill="#c7dcf6"/><path d="m156.710938 57.339844h128.207031c5.570312 0 10.085937 4.515625 10.085937 10.089844v444.570312h-148.382812v-444.570312c0-5.574219 4.519531-10.089844 10.089844-10.089844zm0 0" fill="#6f6571"/><path d="m258.179688 342.011719c-4.203126 0-7.609376-3.410157-7.609376-7.613281v-236.464844c0-4.203125 3.40625-7.609375 7.609376-7.609375 4.207031 0 7.613281 3.40625 7.613281 7.609375v236.464844c0 4.203124-3.40625 7.613281-7.613281 7.613281zm0 0" fill="#c7dcf6"/><path d="m183.445312 342.011719c-4.203124 0-7.609374-3.410157-7.609374-7.613281v-236.464844c0-4.203125 3.40625-7.609375 7.609374-7.609375 4.207032 0 7.613282 3.40625 7.613282 7.609375v236.464844c0 4.203124-3.40625 7.613281-7.613282 7.613281zm0 0" fill="#c7dcf6"/><path d="m221.898438 342.011719c-4.207032 0-7.613282-3.410157-7.613282-7.613281v-236.464844c0-4.203125 3.40625-7.609375 7.613282-7.609375 4.203124 0 7.609374 3.40625 7.609374 7.609375v236.464844c0 4.203124-3.40625 7.613281-7.609374 7.613281zm0 0" fill="#c7dcf6"/><path d="m9.175781 368.144531h147.089844c5.066406 0 9.175781 4.105469 9.175781 9.175781v134.679688h-155.46875c-5.507812 0-9.972656-4.464844-9.972656-9.972656v-124.707032c0-5.066406 4.109375-9.175781 9.175781-9.175781zm0 0" fill="#b7b2b8"/><path d="m145.964844 368.144531h-126.488282v-235.882812c0-5.203125 4.21875-9.421875 9.421876-9.421875h117.066406zm0 0" fill="#edebed"/><path d="m116.179688 122.925781h-66.917969v-45.695312c0-2.207031 1.246093-4.226563 3.222656-5.214844l55.25-27.652344c3.878906-1.941406 8.445313.878907 8.445313 5.21875zm0 0" fill="#9cbee4"/><path d="m129.292969 414.898438h-93.144531c-4.207032 0-7.613282-3.40625-7.613282-7.609376 0-4.207031 3.40625-7.613281 7.613282-7.613281h93.144531c4.203125 0 7.613281 3.40625 7.613281 7.613281 0 4.203126-3.410156 7.609376-7.613281 7.609376zm0 0" fill="#6f6571"/><path d="m129.292969 447.175781h-93.144531c-4.207032 0-7.613282-3.40625-7.613282-7.609375s3.40625-7.613281 7.613282-7.613281h93.144531c4.203125 0 7.613281 3.410156 7.613281 7.613281s-3.410156 7.609375-7.613281 7.609375zm0 0" fill="#6f6571"/><path d="m129.292969 479.457031h-93.144531c-4.207032 0-7.613282-3.410156-7.613282-7.613281s3.40625-7.613281 7.613282-7.613281h93.144531c4.203125 0 7.613281 3.410156 7.613281 7.613281s-3.410156 7.613281-7.613281 7.613281zm0 0" fill="#6f6571"/><g fill="#9cbee4"><path d="m52.105469 169.597656c9.796875 0 9.8125-15.222656 0-15.222656-9.796875 0-9.8125 15.222656 0 15.222656zm0 0"/><path d="m82.722656 169.597656c9.792969 0 9.808594-15.222656 0-15.222656-9.796875 0-9.8125 15.222656 0 15.222656zm0 0"/><path d="m113.335938 169.597656c9.792968 0 9.8125-15.222656 0-15.222656-9.796876 0-9.8125 15.222656 0 15.222656zm0 0"/><path d="m52.105469 203.484375c9.796875 0 9.8125-15.222656 0-15.222656-9.796875 0-9.8125 15.222656 0 15.222656zm0 0"/><path d="m82.722656 203.484375c9.792969 0 9.808594-15.222656 0-15.222656-9.796875 0-9.8125 15.222656 0 15.222656zm0 0"/><path d="m113.335938 203.484375c9.792968 0 9.8125-15.222656 0-15.222656-9.796876 0-9.8125 15.222656 0 15.222656zm0 0"/><path d="m52.105469 237.375c9.796875 0 9.8125-15.226562 0-15.226562-9.796875 0-9.8125 15.226562 0 15.226562zm0 0"/><path d="m82.722656 237.375c9.792969 0 9.808594-15.226562 0-15.226562-9.796875 0-9.8125 15.226562 0 15.226562zm0 0"/><path d="m113.335938 237.375c9.792968 0 9.8125-15.226562 0-15.226562-9.796876 0-9.8125 15.226562 0 15.226562zm0 0"/><path d="m52.105469 271.261719c9.796875 0 9.8125-15.222657 0-15.222657-9.796875 0-9.8125 15.222657 0 15.222657zm0 0"/><path d="m82.722656 271.261719c9.792969 0 9.808594-15.222657 0-15.222657-9.796875 0-9.8125 15.222657 0 15.222657zm0 0"/><path d="m113.335938 271.261719c9.792968 0 9.8125-15.222657 0-15.222657-9.796876 0-9.8125 15.222657 0 15.222657zm0 0"/><path d="m52.105469 305.148438c9.796875 0 9.8125-15.222657 0-15.222657-9.796875 0-9.8125 15.222657 0 15.222657zm0 0"/><path d="m82.722656 305.148438c9.792969 0 9.808594-15.222657 0-15.222657-9.796875 0-9.8125 15.222657 0 15.222657zm0 0"/><path d="m113.335938 305.148438c9.792968 0 9.8125-15.222657 0-15.222657-9.796876 0-9.8125 15.222657 0 15.222657zm0 0"/><path d="m52.105469 339.035156c9.796875 0 9.8125-15.222656 0-15.222656-9.796875 0-9.8125 15.222656 0 15.222656zm0 0"/><path d="m82.722656 339.035156c9.792969 0 9.808594-15.222656 0-15.222656-9.796875 0-9.8125 15.222656 0 15.222656zm0 0"/><path d="m113.335938 339.035156c9.792968 0 9.8125-15.222656 0-15.222656-9.796876 0-9.8125 15.222656 0 15.222656zm0 0"/></g><path d="m333.863281 295.886719c-4.207031 0-7.613281 3.410156-7.613281 7.613281v70.929688c0 4.203124 3.40625 7.613281 7.613281 7.613281 4.203125 0 7.609375-3.410157 7.609375-7.613281v-70.929688c0-4.203125-3.40625-7.613281-7.609375-7.613281zm0 0" fill="#6f6571"/><path d="m371.769531 295.886719c-4.203125 0-7.609375 3.410156-7.609375 7.613281v21.203125c0 4.203125 3.40625 7.609375 7.609375 7.609375s7.613281-3.40625 7.613281-7.609375v-21.203125c0-4.203125-3.410156-7.613281-7.613281-7.613281zm0 0" fill="#6f6571"/><path d="m371.769531 345.617188c-4.203125 0-7.609375 3.40625-7.609375 7.609374v69.464844c0 4.203125 3.40625 7.613282 7.609375 7.613282s7.613281-3.410157 7.613281-7.613282v-69.464844c0-4.203124-3.410156-7.609374-7.613281-7.609374zm0 0" fill="#6f6571"/><path d="m333.863281 395.34375c-4.207031 0-7.613281 3.410156-7.613281 7.613281v21.203125c0 4.203125 3.40625 7.609375 7.613281 7.609375 4.203125 0 7.609375-3.40625 7.609375-7.609375v-21.203125c0-4.203125-3.40625-7.613281-7.609375-7.613281zm0 0" fill="#6f6571"/><path d="m333.863281 445.074219c-4.207031 0-7.613281 3.40625-7.613281 7.609375v21.203125c0 4.203125 3.40625 7.613281 7.613281 7.613281 4.203125 0 7.609375-3.410156 7.609375-7.613281v-21.203125c0-4.203125-3.40625-7.609375-7.609375-7.609375zm0 0" fill="#6f6571"/><path d="m371.769531 445.074219c-4.203125 0-7.609375 3.40625-7.609375 7.609375v21.203125c0 4.203125 3.40625 7.613281 7.609375 7.613281s7.613281-3.410156 7.613281-7.613281v-21.203125c0-4.203125-3.410156-7.609375-7.613281-7.609375zm0 0" fill="#6f6571"/><path d="m361.578125 106.5625 36.746094-69.011719h38.453125l40.496094 67.996094zm0 0" fill="#9cbee4"/><path d="m436.773438 37.550781h-38.449219l-2.925781 5.5 37.222656 62.496094-70.832032.621094-.210937.394531 115.695313-1.015625zm0 0" fill="#7fabd5"/><path d="m499.054688 131.425781h-159.257813c-2.101563 0-3.570313-2.082031-2.867187-4.0625l7.539062-21.25c1.308594-3.6875 4.792969-6.148437 8.703125-6.148437h132.507813c3.910156 0 7.398437 2.460937 8.703124 6.148437l7.542969 21.25c.703125 1.980469-.769531 4.0625-2.871093 4.0625zm0 0" fill="#6f6571"/><path d="m501.925781 127.363281-7.542969-21.25c-1.304687-3.6875-4.792968-6.148437-8.703124-6.148437h-44.652344c3.910156 0 7.394531 2.460937 8.703125 6.148437l7.539062 21.25c.703125 1.980469-.765625 4.0625-2.867187 4.0625h44.652344c2.101562 0 3.574218-2.082031 2.871093-4.0625zm0 0" fill="#5c525f"/><path d="m449.5 295.832031c9.796875 0 9.8125-15.222656 0-15.222656-9.792969 0-9.808594 15.222656 0 15.222656zm0 0" fill="#9cbee4"/><path d="m449.5 332.570312c9.796875 0 9.8125-15.222656 0-15.222656-9.792969 0-9.808594 15.222656 0 15.222656zm0 0" fill="#9cbee4"/><path d="m449.5 369.308594c9.796875 0 9.8125-15.222656 0-15.222656-9.792969 0-9.808594 15.222656 0 15.222656zm0 0" fill="#9cbee4"/><path d="m449.5 406.046875c9.796875 0 9.8125-15.222656 0-15.222656-9.792969 0-9.808594 15.222656 0 15.222656zm0 0" fill="#9cbee4"/><path d="m449.5 442.785156c9.796875 0 9.8125-15.222656 0-15.222656-9.792969 0-9.808594 15.222656 0 15.222656zm0 0" fill="#9cbee4"/><path d="m449.5 479.523438c9.796875 0 9.8125-15.222657 0-15.222657-9.792969 0-9.808594 15.222657 0 15.222657zm0 0" fill="#9cbee4"/></svg>